# xmcd
#
# Track frame offsets:
# 150
# 22544
# 43770
# 54303
# 70136
# 76439
# 90673
# 99607
# 136415
# 145095
# 177831
# 185408
# 200917
# 205924
# 229736
# 247228
# 262702
# 276766
#
# Disc length: 3911 seconds
#
#
# Revision: 0
# Processed by: cddbd v1.5.1PL0 Copyright (c) Steve Scherf et al.
# Submitted via: FreeRIP 2.70 
#
DISCID=fb0f4512
DTITLE=GAITA-L - GAITA-L
DYEAR=2000
DGENRE=Blues
TTITLE0=Acustika - Rock and Baiao
TTITLE1=Ailton Rios - A Caminho do Inferno
TTITLE2=Andre Godoy e Vinicius - Bluesinho Basico
TTITLE3=Christian Dechery [Lemming] - (Born To) Hand Jive
TTITLE4=Cristian de Ross - Circus Soul
TTITLE5=Fernando Xavier - Louvor a Gandaia
TTITLE6=Fred Luna - Microfoninho Branco de Computador
TTITLE7=Gaspar Vianna [Banda Garganta Seca] - Ride The Blues
TTITLE8=Gustavo Porfirio - Solidao
TTITLE9=Leonardo Kenji and Amigos - Vapor Barato
TTITLE10=Mariana Borsatto - Blue Midnight
TTITLE11=Mario [Que Mario] - Voo do Albatroz
TTITLE12=Nix - Blowin and Jumpin
TTITLE13=Rodrigo Eberienos - Anunciacao
TTITLE14=Rodrigo Eberienos [Banda Bludogues] - Quando o Amor se Vai
TTITLE15=Mosquito - Quando Acabar
TTITLE16=Ulysses Cazallas and Sergio Duarte - St. Louis Blues
TTITLE17=Ulysses Cazallas - Andaluzia
EXTD=
EXTT0=
EXTT1=
EXTT2=
EXTT3=
EXTT4=
EXTT5=
EXTT6=
EXTT7=
EXTT8=
EXTT9=
EXTT10=
EXTT11=
EXTT12=
EXTT13=
EXTT14=
EXTT15=
EXTT16=
EXTT17=
PLAYORDER=
